<svg width="433.301" height="96" viewBox="0 0 433.301 96" xmlns="http://www.w3.org/2000/svg"><g id="svgGroup" stroke-linecap="round" fill-rule="evenodd" font-size="9pt" stroke="#000" stroke-width="0.25mm" fill="#000" style="stroke:#000;stroke-width:0.25mm;fill:#000"><path d="M 9.5 74 L 0 74 L 0 4 L 41.5 4 L 41.5 12.2 L 9.5 12.2 L 9.5 33.6 L 36.2 33.6 L 36.2 41.4 L 9.5 41.4 L 9.5 74 Z M 316.2 71.5 L 307.5 75 L 299.7 55 L 267.3 55 L 259.5 74.8 L 251.4 71.5 L 278.8 4 L 289.2 4 L 316.2 71.5 Z M 201.5 27.2 L 201.5 0 L 210.5 0 L 210.5 61.4 A 12.15 12.15 0 0 0 210.602 63.036 Q 210.934 65.47 212.35 66.35 Q 214.2 67.5 216.4 67.5 L 214.5 74.5 Q 205 74.5 202.9 66.9 Q 200.7 70 196.75 72.6 Q 192.8 75.2 186.8 75.2 Q 180.4 75.2 175.1 71.9 A 22.692 22.692 0 0 1 167.562 64.109 A 27.622 27.622 0 0 1 166.7 62.55 A 27.533 27.533 0 0 1 164.112 54.608 A 37.221 37.221 0 0 1 163.6 48.3 A 33.94 33.94 0 0 1 164.489 40.386 A 27.963 27.963 0 0 1 166.75 34.2 A 27.291 27.291 0 0 1 171.369 27.609 A 24.186 24.186 0 0 1 175.15 24.4 Q 180.4 20.8 186.7 20.8 A 21.642 21.642 0 0 1 190.972 21.202 A 15.942 15.942 0 0 1 195.65 22.9 A 34.343 34.343 0 0 1 198.23 24.489 Q 199.454 25.324 200.425 26.174 A 16.59 16.59 0 0 1 201.5 27.2 Z M 336.1 96 L 327.1 96 L 327.1 35.3 A 11.015 11.015 0 0 0 326.973 33.564 Q 326.642 31.498 325.45 30.45 A 5.718 5.718 0 0 0 322.66 29.128 A 7.991 7.991 0 0 0 321.2 29 L 323.1 22 Q 328.962 22 332.022 24.964 A 10.15 10.15 0 0 1 334.6 29.3 Q 335.555 27.867 337.652 25.977 A 38.58 38.58 0 0 1 337.85 25.8 A 18.902 18.902 0 0 1 340.551 23.816 A 25.569 25.569 0 0 1 343.45 22.3 A 16.955 16.955 0 0 1 348.009 21.011 A 21.886 21.886 0 0 1 351.1 20.8 Q 357.1 20.8 362.35 23.95 A 22.329 22.329 0 0 1 369.528 30.917 A 27.464 27.464 0 0 1 370.8 33.05 Q 374 39 374 47.5 Q 374 55.8 370.8 62.05 A 27.846 27.846 0 0 1 366.866 67.882 A 23.029 23.029 0 0 1 362.45 71.75 Q 357.3 75.2 351.3 75.2 Q 346.7 75.2 342.7 73.35 A 30.352 30.352 0 0 1 339.284 71.511 Q 337.491 70.384 336.1 69.1 L 336.1 96 Z M 395.4 96 L 386.4 96 L 386.4 35.3 A 11.015 11.015 0 0 0 386.273 33.564 Q 385.942 31.498 384.75 30.45 A 5.718 5.718 0 0 0 381.96 29.128 A 7.991 7.991 0 0 0 380.5 29 L 382.4 22 Q 388.262 22 391.322 24.964 A 10.15 10.15 0 0 1 393.9 29.3 Q 394.855 27.867 396.952 25.977 A 38.58 38.58 0 0 1 397.15 25.8 A 18.902 18.902 0 0 1 399.851 23.816 A 25.569 25.569 0 0 1 402.75 22.3 A 16.955 16.955 0 0 1 407.309 21.011 A 21.886 21.886 0 0 1 410.4 20.8 Q 416.4 20.8 421.65 23.95 A 22.329 22.329 0 0 1 428.828 30.917 A 27.464 27.464 0 0 1 430.1 33.05 Q 433.3 39 433.3 47.5 Q 433.3 55.8 430.1 62.05 A 27.846 27.846 0 0 1 426.166 67.882 A 23.029 23.029 0 0 1 421.75 71.75 Q 416.6 75.2 410.6 75.2 Q 406 75.2 402 73.35 A 30.352 30.352 0 0 1 398.584 71.511 Q 396.791 70.384 395.4 69.1 L 395.4 96 Z M 56.1 71.75 A 24.559 24.559 0 0 0 60.698 73.84 Q 64.753 75.2 69.4 75.2 Q 76.8 75.2 82.65 71.8 Q 88.5 68.4 91.9 62.25 A 26.255 26.255 0 0 0 94.553 55.109 A 34.184 34.184 0 0 0 95.3 47.8 A 34.542 34.542 0 0 0 94.815 41.891 A 25.795 25.795 0 0 0 91.85 33.45 Q 88.4 27.4 82.55 24.1 A 24.848 24.848 0 0 0 77.909 22.073 A 27.738 27.738 0 0 0 69.4 20.8 A 31.325 31.325 0 0 0 67.82 20.839 A 26.169 26.169 0 0 0 56.2 24.1 Q 50.3 27.4 46.9 33.5 A 26.023 26.023 0 0 0 44.151 41.09 A 35.006 35.006 0 0 0 43.5 48 A 34.82 34.82 0 0 0 43.765 52.354 A 27.451 27.451 0 0 0 46.85 62.15 Q 50.2 68.3 56.1 71.75 Z M 115.9 71.75 A 24.559 24.559 0 0 0 120.498 73.84 Q 124.553 75.2 129.2 75.2 Q 136.6 75.2 142.45 71.8 Q 148.3 68.4 151.7 62.25 A 26.255 26.255 0 0 0 154.353 55.109 A 34.184 34.184 0 0 0 155.1 47.8 A 34.542 34.542 0 0 0 154.615 41.891 A 25.795 25.795 0 0 0 151.65 33.45 Q 148.2 27.4 142.35 24.1 A 24.848 24.848 0 0 0 137.709 22.073 A 27.738 27.738 0 0 0 129.2 20.8 A 31.325 31.325 0 0 0 127.62 20.839 A 26.169 26.169 0 0 0 116 24.1 Q 110.1 27.4 106.7 33.5 A 26.023 26.023 0 0 0 103.951 41.09 A 35.006 35.006 0 0 0 103.3 48 A 34.82 34.82 0 0 0 103.565 52.354 A 27.451 27.451 0 0 0 106.65 62.15 Q 110 68.3 115.9 71.75 Z M 69.4 67.2 Q 77.3 67.2 81.7 61.85 A 18.802 18.802 0 0 0 85.519 53.76 A 27.105 27.105 0 0 0 86.1 48 Q 86.1 42.8 83.9 38.45 A 19.198 19.198 0 0 0 79.728 32.881 A 18.17 18.17 0 0 0 77.95 31.45 Q 74.2 28.8 69.4 28.8 A 19.249 19.249 0 0 0 64.174 29.472 A 14.037 14.037 0 0 0 57.1 34 A 17.878 17.878 0 0 0 53.426 41.374 Q 52.7 44.306 52.7 47.8 Q 52.7 53 54.9 57.45 A 19.437 19.437 0 0 0 58.43 62.49 A 17.627 17.627 0 0 0 60.85 64.55 Q 64.6 67.2 69.4 67.2 Z M 129.2 67.2 Q 137.1 67.2 141.5 61.85 A 18.802 18.802 0 0 0 145.319 53.76 A 27.105 27.105 0 0 0 145.9 48 Q 145.9 42.8 143.7 38.45 A 19.198 19.198 0 0 0 139.528 32.881 A 18.17 18.17 0 0 0 137.75 31.45 Q 134 28.8 129.2 28.8 A 19.249 19.249 0 0 0 123.974 29.472 A 14.037 14.037 0 0 0 116.9 34 A 17.878 17.878 0 0 0 113.226 41.374 Q 112.5 44.306 112.5 47.8 Q 112.5 53 114.7 57.45 A 19.437 19.437 0 0 0 118.23 62.49 A 17.627 17.627 0 0 0 120.65 64.55 Q 124.4 67.2 129.2 67.2 Z M 336.1 35.4 L 336.1 61 Q 338.7 63.7 342.1 65.45 Q 345.5 67.2 349.5 67.2 Q 356.194 67.2 360.417 62.016 A 17.38 17.38 0 0 0 360.55 61.85 A 18.792 18.792 0 0 0 364.044 54.544 Q 364.705 51.855 364.788 48.708 A 34.555 34.555 0 0 0 364.8 47.8 Q 364.8 41.8 362.65 37.5 Q 360.5 33.2 356.95 30.9 Q 353.4 28.6 349.1 28.6 A 14.741 14.741 0 0 0 343.473 29.663 A 14.054 14.054 0 0 0 341.35 30.75 Q 337.9 32.9 336.1 35.4 Z M 395.4 35.4 L 395.4 61 Q 398 63.7 401.4 65.45 Q 404.8 67.2 408.8 67.2 Q 415.494 67.2 419.717 62.016 A 17.38 17.38 0 0 0 419.85 61.85 A 18.792 18.792 0 0 0 423.344 54.544 Q 424.005 51.855 424.088 48.708 A 34.555 34.555 0 0 0 424.1 47.8 Q 424.1 41.8 421.95 37.5 Q 419.8 33.2 416.25 30.9 Q 412.7 28.6 408.4 28.6 A 14.741 14.741 0 0 0 402.773 29.663 A 14.054 14.054 0 0 0 400.65 30.75 Q 397.2 32.9 395.4 35.4 Z M 201.5 60.9 L 201.5 35.1 A 15.847 15.847 0 0 0 199.389 32.927 Q 198.268 31.964 196.869 31.066 A 28.139 28.139 0 0 0 196.2 30.65 Q 192.8 28.6 188.7 28.6 A 14.946 14.946 0 0 0 183.744 29.4 A 13.385 13.385 0 0 0 180.3 31.2 A 16.69 16.69 0 0 0 175.13 37.35 A 19.924 19.924 0 0 0 174.75 38.15 A 22.19 22.19 0 0 0 173.01 44.514 A 28.113 28.113 0 0 0 172.8 48 A 24.757 24.757 0 0 0 173.393 53.519 A 20.327 20.327 0 0 0 174.9 57.85 A 18.205 18.205 0 0 0 177.94 62.363 A 16.122 16.122 0 0 0 180.65 64.7 Q 184.3 67.2 188.8 67.2 Q 192.5 67.2 195.85 65.45 Q 199.2 63.7 201.5 60.9 Z M 283.5 13.4 L 270.3 47 L 296.6 47 L 283.5 13.4 Z" vector-effect="non-scaling-stroke"/></g></svg>